# xmcd
#
# Track frame offsets: 
#        150
#        13761
#        33095
#        46389
#        66264
#        80685
#        95221
#        108194
#        121590
#        133973
#        144988
#        155949
#        166805
#        189239
#        212199
#
# Disc length: 3269 seconds
#
# Revision: 1
# Processed by: cddbd v1.5.2PL0 Copyright (c) Steve Scherf et al.
# Submitted via: ExactAudioCopy v0.99pb5
#
DISCID=d00cc30f
DTITLE=Bill Davison - Quadromania [CD1]
DYEAR=2005
DGENRE=Jazz
TTITLE0=At The Jazz Band Ball
TTITLE1=That's A Plenty
TTITLE2=Baby, Won't You Please Come Home
TTITLE3=Panama
TTITLE4=Original Dixieland One Step
TTITLE5=Muskrat Ramble
TTITLE6=Riverboat Shuffle
TTITLE7=Clarinet Marmalade
TTITLE8=Squeeze Me (Take One And Two)
TTITLE9=Royal Garden Blues (Take Five)
TTITLE10=That Da da Strain (Take One)
TTITLE11=That Da Da Strain (Take Two)
TTITLE12=Carolina In The Morning (Take One)
TTITLE13=Carolina In The Morning (Take Two)
TTITLE14=Weary Blues
EXTD=
EXTT0=
EXTT1=
EXTT2=
EXTT3=
EXTT4=
EXTT5=
EXTT6=
EXTT7=
EXTT8=
EXTT9=
EXTT10=
EXTT11=
EXTT12=
EXTT13=
EXTT14=
PLAYORDER=
